<?xml version="1.0" standalone="no"?>
<!DOCTYPE svg PUBLIC "-//W3C//DTD SVG 20010904//EN"
 "http://www.w3.org/TR/2001/REC-SVG-20010904/DTD/svg10.dtd">
<svg version="1.0" xmlns="http://www.w3.org/2000/svg"
 width="1920.000000pt" height="1080.000000pt" viewBox="0 0 1920.000000 1080.000000"
 preserveAspectRatio="xMidYMid meet">
<metadata>
Created by potrace 1.16, written by Peter Selinger 2001-2019
</metadata>
<g transform="translate(0.000000,1080.000000) scale(0.100000,-0.100000)"
fill="#000000" stroke="none">
<path d="M6660 6710 l0 -130 785 0 785 0 0 130 0 130 -785 0 -785 0 0 -130z"/>
<path d="M8760 6710 l0 -130 400 0 c447 0 507 -6 614 -63 177 -94 175 -311 -3
-401 -115 -59 -121 -59 -583 -64 l-428 -4 0 -128 0 -129 448 -3 c436 -4 449
-4 517 -27 126 -42 184 -85 221 -166 59 -126 6 -259 -133 -332 -120 -64 -134
-66 -615 -70 l-438 -4 0 -130 0 -129 343 0 c531 1 675 18 854 105 196 95 293
248 293 460 0 184 -67 318 -205 410 l-56 37 40 31 c133 106 186 263 151 447
-34 177 -176 314 -395 379 -116 34 -221 41 -632 41 l-393 0 0 -130z"/>
<path d="M11197 6425 c-114 -228 -207 -422 -207 -430 0 -13 24 -15 155 -15
l155 0 108 217 109 216 127 -259 c70 -142 234 -476 364 -741 l236 -483 153 0
c121 0 153 3 153 13 0 8 -71 160 -159 338 -189 386 -490 1004 -647 1327 l-113
232 -113 0 -113 0 -208 -415z"/>
<path d="M6664 6037 c-2 -7 -3 -62 -2 -123 l3 -109 778 0 778 0 0 120 0 120
-776 3 c-635 2 -776 0 -781 -11z"/>
<path d="M10660 5350 c-110 -220 -200 -404 -200 -410 0 -6 59 -10 158 -10
l159 0 136 280 137 280 330 0 c286 0 330 2 330 15 0 8 -26 67 -57 130 l-58
115 -367 0 -368 0 -200 -400z"/>
<path d="M6660 5060 l0 -130 785 0 785 0 0 130 0 130 -785 0 -785 0 0 -130z"/>
<path d="M7923 4499 c-87 -17 -169 -82 -195 -156 -21 -61 -16 -190 9 -238 50
-95 133 -138 268 -139 111 -1 172 16 226 62 52 45 69 85 69 162 l0 60 -155 0
-155 0 0 -40 0 -40 110 0 c121 0 128 -4 89 -54 -78 -99 -285 -92 -354 13 -45
67 -42 153 6 223 50 70 202 96 286 48 29 -16 50 -37 64 -67 20 -41 23 -43 66
-43 l45 0 -7 33 c-10 46 -50 112 -84 136 -60 43 -186 61 -288 40z"/>
<path d="M6655 4488 c-3 -7 -4 -126 -3 -263 l3 -250 35 1 35 0 0 260 0 259
-33 3 c-20 2 -34 -2 -37 -10z"/>
<path d="M6980 4235 l0 -265 45 0 45 0 0 193 1 192 20 -25 c47 -59 98 -119
159 -186 36 -39 85 -95 109 -123 39 -46 47 -51 85 -51 l41 0 0 265 0 265 -42
0 -43 0 0 -195 0 -194 -43 47 c-24 26 -66 75 -94 109 -28 34 -74 86 -102 115
-28 29 -61 68 -74 85 -19 28 -28 33 -64 33 l-43 0 0 -265z"/>
<path d="M8540 4235 l0 -265 225 0 225 0 0 40 0 40 -180 0 -180 0 0 80 0 80
160 0 160 0 0 40 0 40 -160 0 -160 0 0 65 0 65 180 0 180 0 0 40 0 40 -225 0
-225 0 0 -265z"/>
<path d="M9210 4258 c0 -134 -3 -253 -6 -265 -6 -22 -3 -23 42 -23 l49 0 -3
197 -2 198 32 -37 c18 -20 96 -109 172 -197 135 -156 141 -161 178 -161 l38 0
0 265 0 265 -45 0 -46 0 3 -195 3 -194 -35 39 c-19 22 -96 110 -170 195 -129
148 -137 155 -172 155 l-38 0 0 -242z"/>
<path d="M9960 4235 l0 -265 45 0 45 0 0 265 0 265 -45 0 -45 0 0 -265z"/>
<path d="M10290 4235 l0 -265 225 0 225 0 0 40 0 40 -180 0 -180 0 0 80 0 80
161 0 160 0 -3 38 -3 37 -157 3 -158 3 0 64 0 65 180 0 180 0 0 40 0 40 -225
0 -225 0 0 -265z"/>
<path d="M10951 4235 l-2 -265 46 0 45 0 0 111 0 111 120 -4 c101 -3 124 -7
147 -25 26 -19 28 -25 31 -107 l3 -86 44 0 45 0 0 95 c0 94 -16 155 -40 155
-5 0 5 22 22 50 27 44 30 55 25 102 -8 61 -42 103 -96 118 -20 5 -115 10 -213
10 l-176 0 -1 -265z m355 169 c40 -19 50 -45 34 -84 -17 -40 -54 -50 -186 -50
l-114 0 0 75 0 75 116 0 c85 0 125 -4 150 -16z"/>
<path d="M11680 4235 l0 -265 45 0 45 0 0 265 0 265 -45 0 -45 0 0 -265z"/>
<path d="M12088 4251 c-71 -138 -128 -257 -128 -265 0 -12 11 -16 48 -16 l48
0 37 75 37 75 120 0 121 0 36 -75 35 -75 49 0 c27 0 49 4 49 9 0 4 -21 50 -46
102 -26 52 -82 167 -125 257 l-78 162 -38 0 -38 0 -127 -249z"/>
</g>
</svg>
